<?xml version="1.0" encoding="UTF-8" standalone="no"?> <svg id="Layer_1" data-name="Layer 1" xmlns="http://www.w3.org/2000/svg" viewBox="0 0 25 25"><title>Heart</title><path id="Heart" d="M12.5,24a.5.5,0,0,1-.36-.16c-.39-.41-9.57-10.07-11-12.36A7.07,7.07,0,0,1,0,7.74,6.77,6.77,0,0,1,12.5,4.17,6.77,6.77,0,0,1,25,7.74a7.07,7.07,0,0,1-1.14,3.75c-1.42,2.29-10.6,11.95-11,12.36A.5.5,0,0,1,12.5,24ZM6.76,2A5.76,5.76,0,0,0,1,7.74,6.09,6.09,0,0,0,2,11c1.21,2,8.75,10,10.51,11.81C14.25,20.92,21.79,12.92,23,11a6.1,6.1,0,0,0,1-3.22,5.77,5.77,0,0,0-11-2.3.52.52,0,0,1-.92,0A5.76,5.76,0,0,0,6.76,2Z" fill="#0e1d25"/></svg>